<svg version="1.2" xmlns="http://www.w3.org/2000/svg" viewBox="0 0 1280 880" width="1280" height="880">
	<title>credit_card_icon-svg</title>
	<style>
		.s0 { fill: #212129 } 
	</style>
	<path id="Path 0" fill-rule="evenodd" class="s0" d="m1202.5 0.5l7.5 2.3c4.1 1.3 10.7 3.8 14.5 5.6 3.8 1.7 10.2 5.3 14 7.8 3.8 2.6 10.3 8.2 14.4 12.5 4 4.3 8.7 9.8 10.3 12.3 1.7 2.5 4.5 7.4 6.3 11 1.8 3.6 4.4 10.3 5.8 15 1.5 4.7 3.1 12.3 3.7 17 0.7 5.7 1 121 1 355.5 0 229.2-0.4 350.1-1 356-0.6 5-2.2 12.8-3.6 17.5-1.5 4.7-4.1 11.4-5.9 15-1.8 3.6-4.6 8.5-6.3 11-1.6 2.5-6.3 8-10.3 12.3-4.1 4.3-10.6 9.9-14.4 12.5-3.8 2.5-10.2 6.1-14 7.8-3.8 1.8-10.6 4.3-23 7.9h-1123l-8-2.3c-4.4-1.2-12.5-4.5-18-7.2-5.5-2.7-11.2-6.1-12.8-7.5-1.5-1.4-3-2.5-3.4-2.5-0.5 0-4.2-3.5-8.3-7.8-4.1-4.2-9-10-10.9-12.7-1.8-2.8-4.7-7.7-6.4-11-1.6-3.3-3.6-7.8-4.4-10-0.8-2.2-2.4-7.4-5.8-19l-0.3-352c-0.2-242.8 0-355.1 0.8-362 0.6-5.5 2.2-13.8 3.6-18.5 1.5-4.7 4.1-11.4 5.9-15 1.8-3.6 4.8-8.7 6.6-11.5 1.9-2.7 6.8-8.5 10.9-12.7 4.1-4.3 7.8-7.8 8.3-7.8 0.4 0 1.7-0.9 3-2.1 1.2-1.1 5.1-3.7 8.7-5.7 3.6-2 9.6-4.8 13.5-6.3 3.9-1.5 10.1-3.4 14-4.2 6.2-1.4 72.4-1.5 1127-1.2zm-1133.4 44.7c-3.5 1.8-9 5.8-12.3 8.8-3.2 3-7.4 8.2-9.3 11.5-2 3.3-4.4 8.7-5.4 12-1 3.3-2 8.2-2.1 11-0.2 2.7-0.2 21.8-0.1 42.2l0.1 37.3h1200c0.2-57.7 0.2-76.8 0-79.5-0.1-2.8-1.1-7.7-2.1-11-1-3.3-3.4-8.7-5.4-12-1.9-3.3-6.3-8.6-9.8-11.8-3.4-3.2-8.9-7.2-12.2-8.8-3.3-1.6-8.5-3.6-11.5-4.4-4.8-1.3-75.4-1.5-559.5-1.4-467.5 0.1-554.8 0.3-559 1.5-2.7 0.7-7.9 2.8-11.4 4.6zm-29.3 527.5c-0.2 118.2 0 217.7 0.5 221.3 0.4 3.6 1.9 9.2 3.2 12.5 1.4 3.3 4.3 8.7 6.6 12 2.3 3.3 6.2 7.6 8.8 9.7 2.5 2 7.3 5 10.6 6.7 3.3 1.8 8.5 3.8 11.5 4.6 4.8 1.3 77.4 1.5 559 1.5 483.5 0 554.2-0.2 559-1.5 3-0.8 8.2-2.8 11.5-4.4 3.3-1.6 8.8-5.6 12.2-8.8 3.5-3.2 7.9-8.5 9.8-11.8 2-3.3 4.4-8.7 5.4-12 1-3.3 2-8.3 2.1-11 0.2-2.8 0.2-101.4 0.1-219.3l-0.1-214.2h-1200zm920.8 54.6c93.7 0.2 96.1 0.3 102 2.2 3.3 1.2 8.9 3.6 12.5 5.5 3.9 2.1 9.4 6.4 14 10.9 4.8 4.8 8.8 10 10.9 14 1.9 3.6 4.2 9.3 5.3 12.5 1 3.3 2.1 9.4 2.4 13.5 0.4 4.4 0.1 10.4-0.6 14.5-0.7 3.9-2.3 9.8-3.7 13-1.3 3.3-4 8.4-5.9 11.3-1.9 2.9-3.9 5-4.4 4.7-0.6-0.2-0.8 0.1-0.5 0.8 0.3 0.7-1.9 3.4-5.2 6.3-3.2 2.8-8.1 6.5-10.8 8.2-2.8 1.7-8 4.1-18 7.7l-99 0.3c-86.7 0.2-99.8 0.1-105-1.3-3.3-0.8-9-3-12.5-4.8-3.6-1.8-7.6-4.2-9-5.2-1.3-1.1-4.4-3.7-6.8-6-2.4-2.2-4.1-4.5-3.8-5.2 0.3-0.7 0.1-1-0.4-0.8-0.6 0.3-2.3-1.1-3.7-3.2-1.5-2.1-4-6.5-5.5-9.8-1.6-3.2-3.5-9.1-4.3-13-0.8-3.8-1.5-9.9-1.5-13.5 0-3.5 0.6-9.2 1.3-12.5 0.7-3.2 2.7-8.9 4.5-12.5 1.7-3.5 4.1-8 5.2-10 1.1-1.9 5.3-6.5 9.2-10.3 4.9-4.6 9.8-8.1 15.3-10.7 4.4-2.1 11.1-4.6 15-5.4 5.9-1.2 22.1-1.4 103-1.2z"/>
</svg>